<svg xmlns:dc="http://purl.org/dc/elements/1.1/" xmlns:cc="http://creativecommons.org/ns#" xmlns:rdf="http://www.w3.org/1999/02/22-rdf-syntax-ns#" xmlns:svg="http://www.w3.org/2000/svg" xmlns="http://www.w3.org/2000/svg" xmlns:sodipodi="http://sodipodi.sourceforge.net/DTD/sodipodi-0.dtd" xmlns:inkscape="http://www.inkscape.org/namespaces/inkscape" viewBox="0 0 12.7 15.875" version="1.1" x="0px" y="0px"><g transform="translate(0,-284.29998)"><path style="" d="m 2.7821197,291.39706 a 1.3533425,1.3533425 0 0 0 -0.6773333,2.49597 l 3.6298187,2.30012 a 1.3533385,1.3533385 0 0 0 1.4493875,-2.28565 l -3.6298187,-2.30064 a 1.3533425,1.3533425 0 0 0 -0.7720542,-0.2098 z m 0.00529,0.15968 a 1.1977079,1.1977079 0 0 1 0.6842125,0.18138 l 1.7496895,1.10846 -1.2824354,2.02365 -1.7494249,-1.10897 a 1.1977079,1.1977079 0 0 1 0.5979583,-2.20452 z" fill="#000000" stroke="none"/><path style="" d="m 9.697005,284.90701 a 1.3533201,1.3533201 0 0 0 -0.8903229,0.39171 L 5.767678,288.3373 a 1.353434,1.353434 0 0 0 1.9139958,1.91409 l 3.0384752,-3.03857 a 1.3533201,1.3533201 0 0 0 -1.023144,-2.30581 z m 0.00794,0.15452 a 1.1977795,1.1977795 0 0 1 0.905405,2.04122 l -1.4644695,1.46399 -1.6933333,-1.69344 1.4634104,-1.46451 a 1.1977795,1.1977795 0 0 1 0.7889874,-0.34726 z" fill="#000000" stroke="none"/><path style="" d="m 10.664851,289.09901 a 1.46345,1.46345 0 0 0 -1.4210772,1.46244 1.4635427,1.4635427 0 0 0 2.9270852,0 1.46345,1.46345 0 0 0 -1.506008,-1.46244 z m 0.04551,0.15503 a 1.307428,1.307428 0 0 1 0.260086,0.0269 l -0.675482,2.52129 a 1.307428,1.307428 0 0 1 0.415396,-2.54816 z m 0.410369,0.0672 a 1.3074281,1.3074281 0 0 1 -0.675481,2.52129 z" fill="#000000" stroke="none"/><path style="" d="m 1.9605885,286.4046 a 1.4634407,1.4634407 0 0 0 -1.43139584,1.47381 1.4634407,1.4634407 0 1 0 2.92682084,0 1.4634407,1.4634407 0 0 0 -1.495425,-1.47381 z m 0.03519,0.1664 a 1.3074281,1.3074281 0 0 1 0.2598208,0.0263 l -0.6760104,2.52129 a 1.3074281,1.3074281 0 0 1 0.4161896,-2.54765 z m 0.4103687,0.0672 a 1.307428,1.307428 0 0 1 -0.6754812,2.52129 z" fill="#000000" stroke="none"/></g><text x="0" y="27.7" fill="#000000" font-size="5px" font-weight="bold" font-family="'Helvetica Neue', Helvetica, Arial-Unicode, Arial, Sans-serif">Created by Phạm Thanh Lộc</text><text x="0" y="32.7" fill="#000000" font-size="5px" font-weight="bold" font-family="'Helvetica Neue', Helvetica, Arial-Unicode, Arial, Sans-serif">from the Noun Project</text></svg>